<?xml version="1.0" encoding="utf-8"?>
<!-- Generator: Adobe Illustrator 24.1.2, SVG Export Plug-In . SVG Version: 6.00 Build 0)  -->
<svg version="1.1" id="Layer_1" xmlns="http://www.w3.org/2000/svg" xmlns:xlink="http://www.w3.org/1999/xlink" x="0px" y="0px"
	 viewBox="0 0 188.62 148.35" style="enable-background:new 0 0 188.62 148.35;" xml:space="preserve">
<style type="text/css">
	.st0{fill:#18C954;}
	.st1{fill:url(#SVGID_1_);}
	.st2{fill:#EACC81;}
	.st3{clip-path:url(#SVGID_3_);fill:url(#SVGID_4_);}
	.st4{clip-path:url(#SVGID_3_);fill:url(#SVGID_5_);}
	.st5{clip-path:url(#SVGID_3_);fill:#18C954;}
	.st6{fill:url(#SVGID_6_);}
	.st7{clip-path:url(#SVGID_8_);fill:url(#SVGID_9_);}
	.st8{clip-path:url(#SVGID_8_);fill:url(#SVGID_10_);}
	.st9{clip-path:url(#SVGID_8_);fill:#18C954;}
	.st10{fill:url(#SVGID_11_);}
	.st11{clip-path:url(#SVGID_13_);fill:url(#SVGID_14_);}
	.st12{clip-path:url(#SVGID_13_);fill:url(#SVGID_15_);}
	.st13{clip-path:url(#SVGID_13_);fill:#18C954;}
	.st14{fill:#FFFFFF;}
	.st15{clip-path:url(#SVGID_17_);fill:#FFFFFF;}
	.st16{clip-path:url(#SVGID_19_);fill:#FFFFFF;}
	.st17{clip-path:url(#SVGID_21_);fill:#FFFFFF;}
</style>
<g>
	<g>
		<g>
			<g>
				<path class="st0" d="M14.98,134.89H4.46c0.18,0.92,0.57,1.6,1.15,2.05c0.58,0.45,1.37,0.67,2.37,0.67
					c0.88,0,1.64-0.14,2.29-0.43c0.65-0.29,1.3-0.77,1.96-1.47l2.32,2.2c-0.59,1-1.51,1.8-2.77,2.42c-1.25,0.61-2.61,0.92-4.08,0.92
					c-2.41,0-4.29-0.7-5.66-2.09c-1.37-1.4-2.05-3.33-2.05-5.8c0-2.49,0.68-4.44,2.05-5.87c1.37-1.43,3.24-2.14,5.63-2.14
					c2.28,0,4.07,0.71,5.37,2.13c1.29,1.42,1.94,3.37,1.94,5.86V134.89z M10.7,131.8c0-0.9-0.28-1.61-0.83-2.13s-1.3-0.78-2.26-0.78
					c-0.86,0-1.56,0.27-2.11,0.81c-0.55,0.54-0.92,1.3-1.1,2.28h6.3V131.8z"/>
			</g>
			<g>
				<path class="st0" d="M16.51,131.34h4.53v2.94h-4.53V131.34z"/>
			</g>
			<g>
				<path class="st0" d="M24.48,139.13c-1.38-1.42-2.06-3.36-2.06-5.83c0-2.47,0.69-4.41,2.06-5.83c1.38-1.42,3.28-2.13,5.7-2.13
					c1.47,0,2.75,0.27,3.84,0.81c1.09,0.54,1.91,1.31,2.46,2.31l-2.6,2.26c-0.39-0.65-0.89-1.16-1.5-1.53
					c-0.61-0.37-1.27-0.55-1.99-0.55c-1.14,0-2.04,0.41-2.69,1.24c-0.65,0.83-0.98,1.96-0.98,3.41c0,1.45,0.33,2.58,0.98,3.41
					s1.55,1.24,2.69,1.24c0.71,0,1.38-0.18,1.99-0.55c0.61-0.37,1.11-0.88,1.5-1.53l2.6,2.26c-0.55,1-1.37,1.77-2.46,2.31
					s-2.37,0.81-3.84,0.81C27.76,141.25,25.86,140.54,24.48,139.13z"/>
			</g>
			<g>
				<path class="st0" d="M39.92,139.14c-1.42-1.41-2.13-3.35-2.13-5.84c0-2.49,0.71-4.43,2.13-5.84c1.42-1.41,3.39-2.11,5.92-2.11
					c2.53,0,4.5,0.7,5.92,2.11c1.42,1.41,2.13,3.35,2.13,5.84c0,2.49-0.71,4.43-2.13,5.84c-1.42,1.41-3.39,2.11-5.92,2.11
					C43.31,141.25,41.34,140.55,39.92,139.14z M48.56,136.79c0.65-0.84,0.98-2,0.98-3.49c0-1.49-0.33-2.65-0.98-3.49
					c-0.65-0.84-1.56-1.25-2.72-1.25c-1.16,0-2.07,0.42-2.72,1.25c-0.65,0.84-0.98,2-0.98,3.49c0,1.49,0.33,2.65,0.98,3.49
					c0.65,0.84,1.56,1.25,2.72,1.25C47,138.04,47.91,137.62,48.56,136.79z"/>
			</g>
			<g>
				<path class="st0" d="M57.84,139.14c-1.42-1.41-2.13-3.35-2.13-5.84c0-2.49,0.71-4.43,2.13-5.84c1.42-1.41,3.39-2.11,5.92-2.11
					c2.53,0,4.5,0.7,5.92,2.11c1.42,1.41,2.13,3.35,2.13,5.84c0,2.49-0.71,4.43-2.13,5.84c-1.42,1.41-3.39,2.11-5.92,2.11
					C61.23,141.25,59.26,140.55,57.84,139.14z M66.48,136.79c0.65-0.84,0.98-2,0.98-3.49c0-1.49-0.33-2.65-0.98-3.49
					c-0.65-0.84-1.56-1.25-2.72-1.25c-1.16,0-2.07,0.42-2.72,1.25c-0.65,0.84-0.98,2-0.98,3.49c0,1.49,0.33,2.65,0.98,3.49
					c0.65,0.84,1.56,1.25,2.72,1.25C64.92,138.04,65.83,137.62,66.48,136.79z"/>
			</g>
			<g>
				<path class="st0" d="M74.25,129.78c0-0.71-0.02-1.45-0.05-2.2c-0.03-0.75-0.07-1.4-0.11-1.93h4.13c0.06,0.57,0.09,1.2,0.09,1.9
					h0.06c0.53-0.71,1.18-1.26,1.96-1.64c0.77-0.38,1.66-0.57,2.66-0.57c1.94,0,3.47,0.71,4.59,2.14c1.12,1.43,1.68,3.37,1.68,5.84
					c0,2.49-0.57,4.43-1.7,5.83c-1.13,1.4-2.7,2.09-4.69,2.09c-0.94,0-1.78-0.15-2.52-0.46c-0.74-0.31-1.3-0.72-1.67-1.25h-0.09
					v8.81h-4.34V129.78z M84.14,136.8c0.52-0.83,0.78-2.02,0.78-3.59c0-3.04-1-4.56-3-4.56c-1,0-1.8,0.29-2.42,0.86
					c-0.61,0.57-0.92,1.31-0.92,2.23v3.27c0,0.84,0.32,1.55,0.96,2.14c0.64,0.59,1.41,0.89,2.31,0.89
					C82.86,138.04,83.62,137.63,84.14,136.8z"/>
			</g>
			<g>
				<path class="st0" d="M106.09,134.89H95.57c0.18,0.92,0.57,1.6,1.15,2.05c0.58,0.45,1.37,0.67,2.37,0.67
					c0.88,0,1.64-0.14,2.29-0.43c0.65-0.29,1.3-0.77,1.96-1.47l2.32,2.2c-0.59,1-1.51,1.8-2.77,2.42c-1.25,0.61-2.61,0.92-4.08,0.92
					c-2.41,0-4.29-0.7-5.66-2.09c-1.37-1.4-2.05-3.33-2.05-5.8c0-2.49,0.68-4.44,2.05-5.87c1.37-1.43,3.24-2.14,5.63-2.14
					c2.28,0,4.07,0.71,5.37,2.13c1.29,1.42,1.94,3.37,1.94,5.86V134.89z M101.8,131.8c0-0.9-0.28-1.61-0.83-2.13
					s-1.3-0.78-2.26-0.78c-0.86,0-1.56,0.27-2.11,0.81c-0.55,0.54-0.92,1.3-1.1,2.28h6.3V131.8z"/>
			</g>
			<g>
				<path class="st0" d="M108.53,129.39c0-1.73-0.03-2.98-0.09-3.73h4.13c0.08,0.8,0.12,1.69,0.12,2.69v0.31h0.12
					c0.39-1,1.09-1.8,2.09-2.4c1.01-0.6,2.17-0.9,3.47-0.9c0.26,0,0.58,0.03,0.95,0.09v3.39c-0.04-0.02-0.24-0.03-0.61-0.03
					c-1.04,0-2.01,0.27-2.91,0.8c-0.9,0.53-1.61,1.23-2.14,2.11c-0.53,0.88-0.8,1.83-0.8,2.84v6.39h-4.34V129.39z"/>
			</g>
			<g>
				<path class="st0" d="M123,140.61c-0.8-0.43-1.42-1.01-1.87-1.76c-0.45-0.74-0.67-1.58-0.67-2.52c0-1.57,0.63-2.77,1.9-3.61
					c1.26-0.84,3.08-1.25,5.44-1.25h2.14v-0.61c0-0.69-0.22-1.23-0.67-1.62c-0.45-0.39-1.06-0.58-1.83-0.58
					c-0.92,0-1.8,0.15-2.65,0.46c-0.85,0.31-1.54,0.72-2.09,1.25l-1.87-2.48c0.88-0.77,1.91-1.39,3.1-1.85s2.4-0.69,3.62-0.69
					c2.08,0,3.72,0.48,4.92,1.45c1.2,0.97,1.8,2.29,1.8,3.96v6.88c0,0.49,0.04,1.07,0.12,1.74c0.08,0.67,0.17,1.19,0.28,1.56h-3.88
					c-0.12-0.29-0.21-0.54-0.28-0.76c-0.06-0.22-0.11-0.54-0.15-0.95h-0.06c-1.14,1.35-2.68,2.02-4.62,2.02
					C124.69,141.25,123.79,141.04,123,140.61z M129.07,137.35c0.58-0.46,0.87-1.04,0.87-1.76v-1.28h-2.26
					c-0.96,0-1.69,0.17-2.2,0.52c-0.51,0.35-0.76,0.85-0.76,1.5c0,0.55,0.18,0.97,0.55,1.27c0.37,0.3,0.9,0.44,1.59,0.44
					C127.75,138.04,128.49,137.81,129.07,137.35z"/>
			</g>
			<g>
				<path class="st0" d="M140.5,139.97c-0.91-0.86-1.36-2.06-1.36-3.61v-7.49h-2.78v-3.21h2.78v-3.88l4.22-1.22h0.12v5.11h4.46v3.21
					h-4.46v6.82c0,0.82,0.2,1.41,0.61,1.79c0.41,0.38,1.04,0.57,1.9,0.57c0.82,0,1.57-0.13,2.26-0.4l0.18,2.94
					c-1.02,0.45-2.39,0.67-4.1,0.67C142.69,141.25,141.41,140.82,140.5,139.97z"/>
			</g>
			<g>
				<path class="st0" d="M151.57,123.52c-0.5-0.45-0.75-1.05-0.75-1.8c0-0.75,0.25-1.36,0.75-1.8c0.5-0.45,1.16-0.67,1.97-0.67
					s1.47,0.22,1.97,0.67c0.5,0.45,0.75,1.05,0.75,1.8c0,0.75-0.25,1.36-0.75,1.8c-0.5,0.45-1.16,0.67-1.97,0.67
					S152.07,123.96,151.57,123.52z M151.37,125.66h4.34v15.29h-4.34V125.66z"/>
			</g>
			<g>
				<path class="st0" d="M174.07,125.66l-6.02,15.29h-3.73l-6.02-15.29h4.46l3.42,9.94l3.42-9.94H174.07z"/>
			</g>
			<g>
				<path class="st0" d="M176.94,140.61c-0.8-0.43-1.42-1.01-1.87-1.76c-0.45-0.74-0.67-1.58-0.67-2.52c0-1.57,0.63-2.77,1.9-3.61
					c1.26-0.84,3.08-1.25,5.44-1.25h2.14v-0.61c0-0.69-0.22-1.23-0.67-1.62c-0.45-0.39-1.06-0.58-1.83-0.58
					c-0.92,0-1.8,0.15-2.65,0.46c-0.85,0.31-1.54,0.72-2.09,1.25l-1.87-2.48c0.88-0.77,1.91-1.39,3.1-1.85s2.4-0.69,3.62-0.69
					c2.08,0,3.72,0.48,4.92,1.45c1.2,0.97,1.8,2.29,1.8,3.96v6.88c0,0.49,0.04,1.07,0.12,1.74c0.08,0.67,0.17,1.19,0.28,1.56h-3.88
					c-0.12-0.29-0.21-0.54-0.28-0.76c-0.06-0.22-0.11-0.54-0.15-0.95h-0.06c-1.14,1.35-2.68,2.02-4.62,2.02
					C178.63,141.25,177.74,141.04,176.94,140.61z M183.01,137.35c0.58-0.46,0.87-1.04,0.87-1.76v-1.28h-2.26
					c-0.96,0-1.69,0.17-2.2,0.52c-0.51,0.35-0.76,0.85-0.76,1.5c0,0.55,0.18,0.97,0.55,1.27c0.37,0.3,0.9,0.44,1.59,0.44
					C181.69,138.04,182.43,137.81,183.01,137.35z"/>
			</g>
		</g>
	</g>
	<g>
		<g>
			<linearGradient id="SVGID_1_" gradientUnits="userSpaceOnUse" x1="48.799" y1="58.2897" x2="127.257" y2="53.5633">
				<stop  offset="8.289125e-03" style="stop-color:#18C954"/>
				<stop  offset="0.1027" style="stop-color:#3CCA5C"/>
				<stop  offset="0.278" style="stop-color:#79CA69"/>
				<stop  offset="0.4386" style="stop-color:#AACB73"/>
				<stop  offset="0.579" style="stop-color:#CDCC7B"/>
				<stop  offset="0.6939" style="stop-color:#E2CC7F"/>
				<stop  offset="0.7689" style="stop-color:#EACC81"/>
			</linearGradient>
			<path class="st1" d="M94.31,23.86c-16.58,0-30.08,13.49-30.08,30.08v3.23c0,16.58,13.49,30.08,30.08,30.08
				c8.79,0,16.7-3.8,22.2-9.84l-7.74-6.8c-3.61,3.88-8.75,6.32-14.46,6.32c-10.89,0-19.76-8.86-19.76-19.76v-3.23
				c0-10.89,8.86-19.76,19.76-19.76c10.89,0,19.76,8.86,19.76,19.76v3.97h10.32v-3.97C124.39,37.35,110.89,23.86,94.31,23.86z"/>
			<path class="st2" d="M100.85,44.68h-9.24c0,7.3,5.92,13.22,13.22,13.22h3.57h5.66C114.07,50.6,108.15,44.68,100.85,44.68z"/>
			<path class="st0" d="M94.31,101.81c-25.51,0-46.26-20.75-46.26-46.26S68.8,9.29,94.31,9.29c25.51,0,46.26,20.75,46.26,46.26
				c0,0.79-0.02,1.58-0.06,2.36h9.29c0.03-0.78,0.06-1.57,0.06-2.36C149.86,24.92,124.94,0,94.31,0C63.68,0,38.76,24.92,38.76,55.55
				c0,30.63,24.92,55.55,55.55,55.55c15.97,0,30.38-6.78,40.52-17.61l-6.98-6.13C119.42,96.25,107.5,101.81,94.31,101.81z"/>
		</g>
		<g>
			<defs>
				<path id="SVGID_2_" d="M94.31,23.86c-16.58,0-30.08,13.49-30.08,30.08v3.23c0,16.58,13.49,30.08,30.08,30.08
					c8.79,0,16.7-3.8,22.2-9.84l-7.74-6.8c-3.61,3.88-8.75,6.32-14.46,6.32c-10.89,0-19.76-8.86-19.76-19.76v-3.23
					c0-10.89,8.86-19.76,19.76-19.76c10.89,0,19.76,8.86,19.76,19.76v3.97h10.32v-3.97C124.39,37.35,110.89,23.86,94.31,23.86z"/>
			</defs>
			<clipPath id="SVGID_3_">
				<use xlink:href="#SVGID_2_"  style="overflow:visible;"/>
			</clipPath>
			<linearGradient id="SVGID_4_" gradientUnits="userSpaceOnUse" x1="92.107" y1="90.6302" x2="92.107" y2="57.9073">
				<stop  offset="0.0868" style="stop-color:#18C954"/>
				<stop  offset="0.9197" style="stop-color:#18C954;stop-opacity:0"/>
			</linearGradient>
			<rect x="57.15" y="57.91" class="st3" width="69.91" height="32.72"/>
			<linearGradient id="SVGID_5_" gradientUnits="userSpaceOnUse" x1="98.5258" y1="91.9761" x2="98.5258" y2="69.5093">
				<stop  offset="0.0847" style="stop-color:#18C954"/>
				<stop  offset="0.9197" style="stop-color:#18C954;stop-opacity:0"/>
			</linearGradient>
			<rect x="63.57" y="69.51" class="st4" width="69.91" height="22.47"/>
			<rect x="95.99" y="68.13" class="st5" width="56.79" height="27.8"/>
		</g>
	</g>
</g>
</svg>
