<?xml version="1.0" encoding="utf-8"?>
<!-- Generator: Adobe Illustrator 24.1.2, SVG Export Plug-In . SVG Version: 6.00 Build 0)  -->
<svg version="1.1" id="Layer_1" xmlns="http://www.w3.org/2000/svg" xmlns:xlink="http://www.w3.org/1999/xlink" x="0px" y="0px"
	 viewBox="0 0 123.46 153.88" style="enable-background:new 0 0 123.46 153.88;" xml:space="preserve">
<style type="text/css">
	.st0{fill:#18C954;}
	.st1{fill:url(#SVGID_1_);}
	.st2{fill:#EACC81;}
	.st3{clip-path:url(#SVGID_3_);fill:url(#SVGID_4_);}
	.st4{clip-path:url(#SVGID_3_);fill:url(#SVGID_5_);}
	.st5{clip-path:url(#SVGID_3_);fill:#18C954;}
	.st6{fill:url(#SVGID_6_);}
	.st7{clip-path:url(#SVGID_8_);fill:url(#SVGID_9_);}
	.st8{clip-path:url(#SVGID_8_);fill:url(#SVGID_10_);}
	.st9{clip-path:url(#SVGID_8_);fill:#18C954;}
	.st10{fill:url(#SVGID_11_);}
	.st11{clip-path:url(#SVGID_13_);fill:url(#SVGID_14_);}
	.st12{clip-path:url(#SVGID_13_);fill:url(#SVGID_15_);}
	.st13{clip-path:url(#SVGID_13_);fill:#18C954;}
	.st14{fill:#FFFFFF;}
	.st15{clip-path:url(#SVGID_17_);fill:#FFFFFF;}
	.st16{clip-path:url(#SVGID_19_);fill:#FFFFFF;}
	.st17{clip-path:url(#SVGID_21_);fill:#FFFFFF;}
</style>
<g>
	<g>
		<g>
			<g>
				<path class="st0" d="M20.64,135.35H6.15c0.25,1.26,0.78,2.2,1.58,2.82c0.8,0.62,1.89,0.93,3.26,0.93c1.21,0,2.26-0.2,3.16-0.59
					c0.9-0.39,1.8-1.07,2.7-2.02l3.2,3.03c-0.82,1.38-2.09,2.49-3.81,3.33c-1.73,0.84-3.6,1.26-5.62,1.26
					c-3.31,0-5.91-0.96-7.79-2.89C0.94,139.3,0,136.64,0,133.24c0-3.43,0.94-6.12,2.82-8.09c1.88-1.97,4.46-2.95,7.75-2.95
					c3.14,0,5.61,0.98,7.39,2.93c1.78,1.95,2.67,4.64,2.67,8.07V135.35z M14.74,131.09c0-1.24-0.38-2.21-1.14-2.93
					c-0.76-0.72-1.8-1.07-3.12-1.07c-1.18,0-2.15,0.37-2.91,1.12c-0.76,0.74-1.26,1.79-1.52,3.14h8.68V131.09z"/>
			</g>
		</g>
		<g>
			<g>
				<path class="st0" d="M22.75,130.46h6.73v4.04h-6.73V130.46z"/>
			</g>
		</g>
		<g>
			<g>
				<path class="st0" d="M34.22,141.18c-1.9-1.95-2.84-4.63-2.84-8.02c0-3.4,0.95-6.07,2.84-8.02c1.9-1.95,4.51-2.93,7.86-2.93
					c2.02,0,3.78,0.37,5.29,1.12c1.5,0.74,2.63,1.8,3.39,3.18l-3.58,3.12c-0.53-0.9-1.22-1.6-2.06-2.11
					c-0.84-0.51-1.75-0.76-2.74-0.76c-1.57,0-2.81,0.57-3.71,1.71c-0.9,1.14-1.35,2.7-1.35,4.7c0,1.99,0.45,3.56,1.35,4.7
					c0.9,1.14,2.13,1.71,3.71,1.71c0.98,0,1.9-0.25,2.74-0.76c0.84-0.51,1.53-1.21,2.06-2.11l3.58,3.12
					c-0.76,1.38-1.89,2.44-3.39,3.18c-1.5,0.74-3.26,1.12-5.29,1.12C38.73,144.11,36.11,143.13,34.22,141.18z"/>
			</g>
		</g>
		<g>
			<g>
				<path class="st0" d="M55.49,141.2c-1.95-1.94-2.93-4.62-2.93-8.05c0-3.43,0.98-6.11,2.93-8.05c1.95-1.94,4.67-2.91,8.15-2.91
					c3.48,0,6.2,0.97,8.15,2.91c1.95,1.94,2.93,4.62,2.93,8.05c0,3.43-0.98,6.11-2.93,8.05c-1.95,1.94-4.67,2.91-8.15,2.91
					C60.16,144.11,57.44,143.14,55.49,141.2z M67.39,137.96c0.9-1.15,1.35-2.75,1.35-4.8c0-2.05-0.45-3.65-1.35-4.8
					c-0.9-1.15-2.15-1.73-3.75-1.73s-2.85,0.58-3.75,1.73c-0.9,1.15-1.35,2.75-1.35,4.8c0,2.05,0.45,3.65,1.35,4.8
					c0.9,1.15,2.15,1.73,3.75,1.73S66.49,139.11,67.39,137.96z"/>
			</g>
		</g>
		<g>
			<g>
				<path class="st0" d="M80.18,141.2c-1.95-1.94-2.93-4.62-2.93-8.05c0-3.43,0.98-6.11,2.93-8.05c1.95-1.94,4.67-2.91,8.15-2.91
					s6.2,0.97,8.15,2.91c1.95,1.94,2.93,4.62,2.93,8.05c0,3.43-0.98,6.11-2.93,8.05c-1.95,1.94-4.67,2.91-8.15,2.91
					S82.13,143.14,80.18,141.2z M92.08,137.96c0.9-1.15,1.35-2.75,1.35-4.8c0-2.05-0.45-3.65-1.35-4.8
					c-0.9-1.15-2.15-1.73-3.75-1.73s-2.85,0.58-3.75,1.73c-0.9,1.15-1.35,2.75-1.35,4.8c0,2.05,0.45,3.65,1.35,4.8
					c0.9,1.15,2.15,1.73,3.75,1.73S91.18,139.11,92.08,137.96z"/>
			</g>
		</g>
		<g>
			<g>
				<path class="st0" d="M102.78,128.31c0-0.98-0.02-1.99-0.06-3.03c-0.04-1.04-0.09-1.92-0.15-2.65h5.69
					c0.08,0.79,0.13,1.66,0.13,2.61h0.08c0.73-0.98,1.63-1.73,2.7-2.25c1.07-0.52,2.29-0.78,3.66-0.78c2.67,0,4.77,0.98,6.32,2.95
					c1.54,1.97,2.32,4.65,2.32,8.05c0,3.43-0.78,6.1-2.34,8.02c-1.56,1.92-3.71,2.89-6.47,2.89c-1.29,0-2.45-0.21-3.48-0.63
					c-1.03-0.42-1.79-1-2.3-1.73h-0.13v12.13h-5.98V128.31z M116.4,137.98c0.72-1.14,1.07-2.79,1.07-4.95
					c0-4.18-1.38-6.28-4.13-6.28c-1.38,0-2.49,0.39-3.33,1.18c-0.84,0.79-1.26,1.81-1.26,3.07v4.51c0,1.15,0.44,2.13,1.33,2.95
					c0.88,0.81,1.94,1.22,3.18,1.22C114.64,139.68,115.69,139.12,116.4,137.98z"/>
			</g>
		</g>
	</g>
	<g>
		<g>
			<linearGradient id="SVGID_1_" gradientUnits="userSpaceOnUse" x1="16.217" y1="58.2897" x2="94.6751" y2="53.5633">
				<stop  offset="8.289125e-03" style="stop-color:#18C954"/>
				<stop  offset="0.1027" style="stop-color:#3CCA5C"/>
				<stop  offset="0.278" style="stop-color:#79CA69"/>
				<stop  offset="0.4386" style="stop-color:#AACB73"/>
				<stop  offset="0.579" style="stop-color:#CDCC7B"/>
				<stop  offset="0.6939" style="stop-color:#E2CC7F"/>
				<stop  offset="0.7689" style="stop-color:#EACC81"/>
			</linearGradient>
			<path class="st1" d="M61.73,23.86c-16.58,0-30.08,13.49-30.08,30.08v3.23c0,16.58,13.49,30.08,30.08,30.08
				c8.79,0,16.7-3.8,22.2-9.84l-7.74-6.8c-3.61,3.88-8.75,6.32-14.46,6.32c-10.89,0-19.76-8.86-19.76-19.76v-3.23
				c0-10.89,8.86-19.76,19.76-19.76c10.89,0,19.76,8.86,19.76,19.76v3.97h10.32v-3.97C91.81,37.35,78.31,23.86,61.73,23.86z"/>
			<path class="st2" d="M68.26,44.68h-9.24c0,7.3,5.92,13.22,13.22,13.22h3.57h5.66C81.49,50.6,75.57,44.68,68.26,44.68z"/>
			<path class="st0" d="M61.73,101.81c-25.51,0-46.26-20.75-46.26-46.26S36.22,9.29,61.73,9.29c25.51,0,46.26,20.75,46.26,46.26
				c0,0.79-0.02,1.58-0.06,2.36h9.29c0.03-0.78,0.06-1.57,0.06-2.36C117.28,24.92,92.36,0,61.73,0C31.1,0,6.18,24.92,6.18,55.55
				c0,30.63,24.92,55.55,55.55,55.55c15.97,0,30.38-6.78,40.52-17.61l-6.98-6.13C86.83,96.25,74.92,101.81,61.73,101.81z"/>
		</g>
		<g>
			<defs>
				<path id="SVGID_7_" d="M61.73,23.86c-16.58,0-30.08,13.49-30.08,30.08v3.23c0,16.58,13.49,30.08,30.08,30.08
					c8.79,0,16.7-3.8,22.2-9.84l-7.74-6.8c-3.61,3.88-8.75,6.32-14.46,6.32c-10.89,0-19.76-8.86-19.76-19.76v-3.23
					c0-10.89,8.86-19.76,19.76-19.76c10.89,0,19.76,8.86,19.76,19.76v3.97h10.32v-3.97C91.81,37.35,78.31,23.86,61.73,23.86z"/>
			</defs>
			<clipPath id="SVGID_3_">
				<use xlink:href="#SVGID_7_"  style="overflow:visible;"/>
			</clipPath>
			<linearGradient id="SVGID_4_" gradientUnits="userSpaceOnUse" x1="59.5251" y1="90.6302" x2="59.5251" y2="57.9073">
				<stop  offset="0.0868" style="stop-color:#18C954"/>
				<stop  offset="0.9197" style="stop-color:#18C954;stop-opacity:0"/>
			</linearGradient>
			<rect x="24.57" y="57.91" class="st3" width="69.91" height="32.72"/>
			<linearGradient id="SVGID_5_" gradientUnits="userSpaceOnUse" x1="65.9439" y1="91.9761" x2="65.9439" y2="69.5093">
				<stop  offset="0.0847" style="stop-color:#18C954"/>
				<stop  offset="0.9197" style="stop-color:#18C954;stop-opacity:0"/>
			</linearGradient>
			<rect x="30.99" y="69.51" class="st4" width="69.91" height="22.47"/>
			<rect x="63.41" y="68.13" class="st5" width="56.79" height="27.8"/>
		</g>
	</g>
</g>
</svg>
