<?xml version="1.0" encoding="utf-8"?>
<!-- Generator: Adobe Illustrator 24.1.2, SVG Export Plug-In . SVG Version: 6.00 Build 0)  -->
<svg version="1.1" id="Layer_1" xmlns="http://www.w3.org/2000/svg" xmlns:xlink="http://www.w3.org/1999/xlink" x="0px" y="0px"
	 viewBox="0 0 135.18 131.72" style="enable-background:new 0 0 135.18 131.72;" xml:space="preserve">
<style type="text/css">
	.st0{fill:#18C954;}
	.st1{fill:url(#SVGID_1_);}
	.st2{fill:#EACC81;}
	.st3{clip-path:url(#SVGID_3_);fill:url(#SVGID_4_);}
	.st4{clip-path:url(#SVGID_3_);fill:url(#SVGID_5_);}
	.st5{clip-path:url(#SVGID_3_);fill:#18C954;}
	.st6{fill:url(#SVGID_6_);}
	.st7{clip-path:url(#SVGID_8_);fill:url(#SVGID_9_);}
	.st8{clip-path:url(#SVGID_8_);fill:url(#SVGID_10_);}
	.st9{clip-path:url(#SVGID_8_);fill:#18C954;}
	.st10{fill:url(#SVGID_11_);}
	.st11{clip-path:url(#SVGID_13_);fill:url(#SVGID_14_);}
	.st12{clip-path:url(#SVGID_13_);fill:url(#SVGID_15_);}
	.st13{clip-path:url(#SVGID_13_);fill:#18C954;}
	.st14{fill:#FFFFFF;}
	.st15{clip-path:url(#SVGID_17_);fill:#FFFFFF;}
	.st16{clip-path:url(#SVGID_19_);fill:#FFFFFF;}
	.st17{clip-path:url(#SVGID_21_);fill:#FFFFFF;}
</style>
<g>
	<g>
		<linearGradient id="SVGID_1_" gradientUnits="userSpaceOnUse" x1="11.8989" y1="69.109" x2="104.9198" y2="63.5053">
			<stop  offset="8.289125e-03" style="stop-color:#18C954"/>
			<stop  offset="0.1027" style="stop-color:#3CCA5C"/>
			<stop  offset="0.278" style="stop-color:#79CA69"/>
			<stop  offset="0.4386" style="stop-color:#AACB73"/>
			<stop  offset="0.579" style="stop-color:#CDCC7B"/>
			<stop  offset="0.6939" style="stop-color:#E2CC7F"/>
			<stop  offset="0.7689" style="stop-color:#EACC81"/>
		</linearGradient>
		<path class="st1" d="M65.86,28.28c-19.66,0-35.66,16-35.66,35.66v3.83c0,19.66,16,35.66,35.66,35.66
			c10.42,0,19.8-4.51,26.32-11.66L83,83.71c-4.28,4.6-10.38,7.49-17.14,7.49c-12.92,0-23.42-10.51-23.42-23.43v-3.83
			c0-12.92,10.51-23.43,23.42-23.43c12.92,0,23.43,10.51,23.43,23.43v4.71h12.23v-4.71C101.52,44.28,85.52,28.28,65.86,28.28z"/>
		<path class="st2" d="M73.61,52.98H62.66c0,8.66,7.02,15.68,15.68,15.68h4.24h6.71C89.28,60,82.26,52.98,73.61,52.98z"/>
		<path class="st0" d="M65.86,120.71c-30.24,0-54.85-24.6-54.85-54.85s24.6-54.85,54.85-54.85c30.24,0,54.85,24.6,54.85,54.85
			c0,0.94-0.02,1.87-0.07,2.8h11.01c0.04-0.93,0.07-1.86,0.07-2.8C131.72,29.54,102.17,0,65.86,0C29.54,0,0,29.54,0,65.86
			c0,36.31,29.54,65.86,65.86,65.86c18.93,0,36.01-8.04,48.04-20.88l-8.27-7.27C95.62,114.11,81.5,120.71,65.86,120.71z"/>
	</g>
	<g>
		<defs>
			<path id="SVGID_12_" d="M65.86,28.28c-19.66,0-35.66,16-35.66,35.66v3.83c0,19.66,16,35.66,35.66,35.66
				c10.42,0,19.8-4.51,26.32-11.66L83,83.71c-4.28,4.6-10.38,7.49-17.14,7.49c-12.92,0-23.42-10.51-23.42-23.43v-3.83
				c0-12.92,10.51-23.43,23.42-23.43c12.92,0,23.43,10.51,23.43,23.43v4.71h12.23v-4.71C101.52,44.28,85.52,28.28,65.86,28.28z"/>
		</defs>
		<clipPath id="SVGID_3_">
			<use xlink:href="#SVGID_12_"  style="overflow:visible;"/>
		</clipPath>
		<linearGradient id="SVGID_4_" gradientUnits="userSpaceOnUse" x1="63.2455" y1="107.4523" x2="63.2455" y2="68.6556">
			<stop  offset="0.0868" style="stop-color:#18C954"/>
			<stop  offset="0.9197" style="stop-color:#18C954;stop-opacity:0"/>
		</linearGradient>
		<rect x="21.8" y="68.66" class="st3" width="82.88" height="38.8"/>
		<linearGradient id="SVGID_5_" gradientUnits="userSpaceOnUse" x1="70.8558" y1="109.048" x2="70.8558" y2="82.411">
			<stop  offset="0.0847" style="stop-color:#18C954"/>
			<stop  offset="0.9197" style="stop-color:#18C954;stop-opacity:0"/>
		</linearGradient>
		<rect x="29.41" y="82.41" class="st4" width="82.88" height="26.64"/>
		<rect x="67.85" y="80.78" class="st5" width="67.33" height="32.96"/>
	</g>
</g>
</svg>
