<svg id="ecooperativa" xmlns="http://www.w3.org/2000/svg" width="1302.055" height="200.81" viewBox="0 0 1302.055 200.81">
  <g id="Grupo_264" data-name="Grupo 264">
    <g id="Grupo_251" data-name="Grupo 251" transform="translate(0 42.109)">
      <path id="Caminho_97" data-name="Caminho 97" d="M103.467,191.205H30.847c1.243,6.351,3.935,11.045,7.939,14.151s9.457,4.625,16.36,4.625a38.458,38.458,0,0,0,15.808-2.968,43.056,43.056,0,0,0,13.53-10.148L100.5,212.053c-4.073,6.9-10.424,12.426-19.121,16.705a63.375,63.375,0,0,1-28.164,6.351c-16.636,0-29.614-4.832-39.071-14.427Q-.045,206.185-.01,180.644c0-17.189,4.694-30.65,14.151-40.521S36.507,125.35,53.006,125.35q23.608,0,37.069,14.7,13.357,14.7,13.392,40.452v10.7Zm-29.545-21.33c0-6.213-1.933-11.114-5.73-14.7s-8.974-5.384-15.6-5.384c-5.937,0-10.769,1.864-14.565,5.591s-6.351,8.974-7.593,15.739H73.922Z" transform="translate(0.01 -125.35)" fill="#18c954"/>
    </g>
    <g id="Grupo_252" data-name="Grupo 252" transform="translate(114.039 83.458)">
      <path id="Caminho_98" data-name="Caminho 98" d="M16.51,131.34H47.781v20.3H16.51Z" transform="translate(-16.51 -131.34)" fill="#18c954"/>
    </g>
    <g id="Grupo_253" data-name="Grupo 253" transform="translate(154.836 42.04)">
      <path id="Caminho_99" data-name="Caminho 99" d="M36.64,220.533c-9.526-9.8-14.22-23.194-14.22-40.245s4.763-30.443,14.22-40.245q14.289-14.7,39.347-14.7,15.221,0,26.508,5.591a38.07,38.07,0,0,1,16.982,15.946l-17.948,15.6a30.366,30.366,0,0,0-10.355-10.562,25.914,25.914,0,0,0-13.737-3.8c-7.869,0-14.082,2.83-18.569,8.56S52.1,170.21,52.1,180.219s2.278,17.81,6.765,23.539,10.7,8.56,18.569,8.56a26.086,26.086,0,0,0,13.737-3.8,30.365,30.365,0,0,0,10.355-10.562l17.948,15.6A38.07,38.07,0,0,1,102.5,229.507Q91.209,235.1,75.988,235.1C59.282,235.168,46.167,230.266,36.64,220.533Z" transform="translate(-22.42 -125.34)" fill="#18c954"/>
    </g>
    <g id="Grupo_254" data-name="Grupo 254" transform="translate(260.936 42.109)">
      <path id="Caminho_100" data-name="Caminho 100" d="M52.494,220.543c-9.8-9.733-14.7-23.125-14.7-40.314s4.9-30.58,14.7-40.314,23.4-14.565,40.866-14.565,31.064,4.832,40.866,14.565,14.7,23.125,14.7,40.314-4.9,30.581-14.7,40.314-23.4,14.565-40.866,14.565S62.3,230.276,52.494,220.543Zm59.642-16.222c4.487-5.8,6.765-13.806,6.765-24.092s-2.278-18.293-6.765-24.092-10.769-8.629-18.776-8.629-14.289,2.9-18.776,8.629c-4.487,5.8-6.765,13.806-6.765,24.092s2.278,18.293,6.765,24.092,10.769,8.629,18.776,8.629S107.649,210.05,112.136,204.321Z" transform="translate(-37.79 -125.35)" fill="#18c954"/>
    </g>
    <g id="Grupo_255" data-name="Grupo 255" transform="translate(384.638 42.109)">
      <path id="Caminho_101" data-name="Caminho 101" d="M70.414,220.543c-9.8-9.733-14.7-23.125-14.7-40.314s4.9-30.58,14.7-40.314,23.4-14.565,40.866-14.565,31.064,4.832,40.866,14.565,14.7,23.125,14.7,40.314-4.9,30.581-14.7,40.314-23.4,14.565-40.866,14.565S80.216,230.276,70.414,220.543Zm59.642-16.222c4.487-5.8,6.765-13.806,6.765-24.092s-2.278-18.293-6.765-24.092-10.769-8.629-18.776-8.629-14.289,2.9-18.776,8.629c-4.487,5.8-6.765,13.806-6.765,24.092s2.278,18.293,6.765,24.092,10.769,8.629,18.776,8.629S125.569,210.05,130.056,204.321Z" transform="translate(-55.71 -125.35)" fill="#18c954"/>
    </g>
    <g id="Grupo_256" data-name="Grupo 256" transform="translate(511.517 42.04)">
      <path id="Caminho_102" data-name="Caminho 102" d="M75.195,155.99c0-4.9-.138-10.009-.345-15.187s-.483-9.664-.759-13.323H102.6a125.748,125.748,0,0,1,.621,13.116h.414a36.877,36.877,0,0,1,13.53-11.321,41.048,41.048,0,0,1,18.362-3.935q20.088,0,31.685,14.773c7.731,9.871,11.6,23.263,11.6,40.314q0,25.783-11.735,40.245c-7.8,9.664-18.638,14.427-32.375,14.427a44.661,44.661,0,0,1-17.4-3.175c-5.108-2.14-8.974-4.97-11.528-8.629h-.621V284.11H75.195Zm68.271,48.459c3.59-5.73,5.384-13.944,5.384-24.782q0-31.478-20.709-31.478c-6.9,0-12.426,2-16.705,5.937-4.211,3.935-6.351,9.043-6.351,15.394v22.573a19.332,19.332,0,0,0,6.627,14.772,22.727,22.727,0,0,0,15.946,6.144C134.63,213.009,139.876,210.179,143.466,204.449Z" transform="translate(-74.09 -125.34)" fill="#18c954"/>
    </g>
    <g id="Grupo_257" data-name="Grupo 257" transform="translate(628.938 42.109)">
      <path id="Caminho_103" data-name="Caminho 103" d="M194.577,191.205h-72.62c1.243,6.351,3.935,11.045,7.939,14.151s9.457,4.625,16.36,4.625a38.458,38.458,0,0,0,15.808-2.968,43.055,43.055,0,0,0,13.53-10.148l16.015,15.187c-4.073,6.9-10.424,12.426-19.122,16.705a63.375,63.375,0,0,1-28.164,6.351c-16.636,0-29.614-4.832-39.071-14.427q-14.186-14.5-14.151-40.038c0-17.189,4.694-30.65,14.151-40.521s22.366-14.773,38.864-14.773q23.609,0,37.069,14.7,13.357,14.7,13.392,40.452v10.7Zm-29.614-21.33c0-6.213-1.933-11.114-5.73-14.7s-8.974-5.384-15.6-5.384c-5.937,0-10.769,1.864-14.565,5.591s-6.351,8.974-7.593,15.739h43.489Z" transform="translate(-91.1 -125.35)" fill="#18c954"/>
    </g>
    <g id="Grupo_258" data-name="Grupo 258" transform="translate(748.637 42.178)">
      <path id="Caminho_104" data-name="Caminho 104" d="M109.061,153.179c0-11.942-.207-20.571-.621-25.748h28.51c.552,5.522.828,11.666.828,18.569v2.14h.828a33.165,33.165,0,0,1,14.427-16.567,46.057,46.057,0,0,1,23.954-6.213,42.166,42.166,0,0,1,6.558.621v23.4a19.923,19.923,0,0,0-4.211-.207,38.944,38.944,0,0,0-20.088,5.522,41.487,41.487,0,0,0-14.773,14.565,37.434,37.434,0,0,0-5.522,19.6v44.111H108.992v-79.8Z" transform="translate(-108.44 -125.36)" fill="#18c954"/>
    </g>
    <g id="Grupo_259" data-name="Grupo 259" transform="translate(831.612 42.109)">
      <path id="Caminho_105" data-name="Caminho 105" d="M137.994,230.691a32.556,32.556,0,0,1-17.534-29.545c0-10.838,4.349-19.122,13.116-24.92,8.7-5.8,21.261-8.629,37.553-8.629H185.9v-4.211c0-4.763-1.519-8.491-4.625-11.183s-7.317-4-12.633-4a52.851,52.851,0,0,0-18.293,3.176A40.176,40.176,0,0,0,135.923,160l-12.909-17.12a71.066,71.066,0,0,1,21.4-12.771A68.891,68.891,0,0,1,169.4,125.35q21.538,0,33.963,10.009Q215.791,145.4,215.791,162.7v47.493a103.24,103.24,0,0,0,.828,12.011,68.834,68.834,0,0,0,1.933,10.769H191.769c-.828-2-1.45-3.728-1.933-5.246a42.269,42.269,0,0,1-1.035-6.558h-.414q-11.8,13.979-31.892,13.944A38.174,38.174,0,0,1,137.994,230.691Zm41.9-22.5a14.785,14.785,0,0,0,6.006-12.149V187.2H170.3c-6.627,0-11.666,1.174-15.187,3.59a11.78,11.78,0,0,0-5.246,10.355c0,3.8,1.243,6.7,3.8,8.767s6.213,3.037,10.976,3.037C170.783,212.95,175.892,211.362,179.9,208.187Z" transform="translate(-120.46 -125.35)" fill="#18c954"/>
    </g>
    <g id="Grupo_260" data-name="Grupo 260" transform="translate(941.37 9.043)">
      <path id="Caminho_106" data-name="Caminho 106" d="M164.939,254.548c-6.282-5.937-9.388-14.22-9.388-24.92v-51.7H136.36V155.766h19.19V128.982l29.131-8.422h.828v35.275H216.3v22.159H185.51v47.079c0,5.661,1.381,9.733,4.211,12.356s7.179,3.935,13.116,3.935a42.355,42.355,0,0,0,15.6-2.761l1.243,20.3c-7.041,3.106-16.5,4.625-28.3,4.625C180.056,263.384,171.22,260.416,164.939,254.548Z" transform="translate(-136.36 -120.56)" fill="#18c954"/>
    </g>
    <g id="Grupo_261" data-name="Grupo 261" transform="translate(1041.189)">
      <path id="Caminho_107" data-name="Caminho 107" d="M156,148.726q-5.177-4.66-5.177-12.426c0-5.177,1.726-9.388,5.177-12.426,3.452-3.106,8.008-4.625,13.6-4.625s10.147,1.519,13.6,4.625,5.177,7.248,5.177,12.426-1.726,9.388-5.177,12.426c-3.452,3.106-8.008,4.625-13.6,4.625S159.449,151.763,156,148.726ZM154.617,163.5h29.959V269.047H154.617Z" transform="translate(-150.82 -119.25)" fill="#18c954"/>
    </g>
    <g id="Grupo_262" data-name="Grupo 262" transform="translate(1092.823 44.249)">
      <path id="Caminho_108" data-name="Caminho 108" d="M267.161,125.66,225.6,231.208H199.856L158.3,125.66h30.788L212.7,194.276,236.3,125.66h30.857Z" transform="translate(-158.3 -125.66)" fill="#18c954"/>
    </g>
    <g id="Grupo_263" data-name="Grupo 263" transform="translate(1203.963 42.109)">
      <path id="Caminho_109" data-name="Caminho 109" d="M191.934,230.691A32.556,32.556,0,0,1,174.4,201.146c0-10.838,4.349-19.121,13.116-24.92,8.7-5.8,21.261-8.629,37.553-8.629h14.772v-4.211c0-4.763-1.519-8.491-4.625-11.183s-7.317-4-12.633-4a52.85,52.85,0,0,0-18.293,3.176A40.174,40.174,0,0,0,189.863,160l-12.909-17.12a71.066,71.066,0,0,1,21.4-12.771,68.89,68.89,0,0,1,24.989-4.763q21.538,0,33.963,10.009Q269.731,145.4,269.731,162.7v47.493a103.243,103.243,0,0,0,.828,12.011,68.834,68.834,0,0,0,1.933,10.769H245.709c-.828-2-1.45-3.728-1.933-5.246a42.272,42.272,0,0,1-1.035-6.558h-.414q-11.8,13.979-31.892,13.944A38.364,38.364,0,0,1,191.934,230.691Zm41.9-22.5a14.785,14.785,0,0,0,6.006-12.149V187.2h-15.6c-6.627,0-11.666,1.174-15.187,3.59a11.78,11.78,0,0,0-5.246,10.355c0,3.8,1.243,6.7,3.8,8.767s6.213,3.037,10.976,3.037C224.723,212.95,229.832,211.362,233.835,208.187Z" transform="translate(-174.4 -125.35)" fill="#18c954"/>
    </g>
  </g>
</svg>
